:FULLY-SPECIFIED
:FORCE-ALL-JOINTS-BE-3DOF
:DEGREES
1529
root -5.6688 15.3463 19.6311 557.392 -10.1872 529.716
lfemur -40.8935 9.2802 -24.1525
ltibia 78.2844 0 0
lfoot -11.9859 19.2993 0
ltoes -28.5969 0 0
rfemur -47.2967 -4.41633 16.0904
rtibia 72.9353 0 0
rfoot -17.51 -8.17228 0
rtoes -20.3401 0 0
lowerback 19.0951 0.574429 0.836378
upperback -1.17387 1.4979 2.74282
thorax -11.9627 0.766862 2.0945
lowerneck -3.88254 5.72864 1.72841
upperneck 3.92072 8.22798 -8.18491
head 2.5473 3.98593 -2.37368
lclavicle -1.44288e-14 4.53811e-15 0
lhumerus 50.2263 -56.3124 47.7848
lradius 106.198 0 0
lwrist 17.011 0 0
lhand -23.0839 39.1743 0
lfingers 7.12502 0 0
lthumb 3.36214 -194.287 0
rclavicle -1.44288e-14 4.53811e-15 0
rhumerus -37.5791 45.4082 -80.7945
rradius 112.692 0 0
rwrist -41.0225 0 0
rhand 6.33284 -30.5986 0
rfingers 7.12502 0 0
rthumb 31.6353 -57.8306 0
1530
root -5.73234 15.3521 19.6552 558.251 -12.4432 528.638
lfemur -40.2519 9.33913 -24.0336
ltibia 77.3266 0 0
lfoot -12.1681 19.1853 0
ltoes -29.0035 0 0
rfemur -47.5246 -4.79544 16.077
rtibia 73.5843 0 0
rfoot -17.3434 -8.29926 0
rtoes -19.9224 0 0
lowerback 19.0284 0.538243 0.544035
upperback -1.16368 1.37865 2.73474
thorax -11.905 0.725005 2.28584
lowerneck -3.91785 5.4411 1.5095
upperneck 3.90463 7.83598 -7.9371
head 2.52907 3.79114 -2.27888
lclavicle -1.39876e-14 4.22781e-15 0
lhumerus 48.5123 -55.1862 48.9089
lradius 104.549 0 0
lwrist 16.689 0 0
lhand -23.0862 39.0219 0
lfingers 7.12502 0 0
lthumb 3.35987 -185.659 0
rclavicle -1.39876e-14 4.22781e-15 0
rhumerus -37.8652 44.9855 -81.2742
rradius 113.095 0 0
rwrist -41.1608 0 0
rhand 6.50451 -30.368 0
rfingers 7.12502 0 0
rthumb 31.7985 -57.565 0
1531
root -5.79588 15.3579 19.6793 559.11 -14.6992 527.56
lfemur -39.6103 9.39806 -23.9147
ltibia 76.3688 0 0
lfoot -12.3504 19.0714 0
ltoes -29.4101 0 0
rfemur -47.7526 -5.17456 16.0637
rtibia 74.2332 0 0
rfoot -17.1769 -8.42624 0
rtoes -19.5048 0 0
lowerback 18.9618 0.502057 0.251692
upperback -1.15348 1.2594 2.72666
thorax -11.8473 0.683149 2.47717
lowerneck -3.95317 5.15356 1.29059
upperneck 3.88854 7.44397 -7.68929
head 2.51084 3.59634 -2.18407
lclavicle -1.35464e-14 3.91752e-15 0
lhumerus 46.7983 -54.0599 50.033
lradius 102.899 0 0
lwrist 16.3669 0 0
lhand -23.0886 38.8694 0
lfingers 7.12502 0 0
lthumb 3.3576 -177.031 0
rclavicle -1.35464e-14 3.91752e-15 0
rhumerus -38.1514 44.5627 -81.7538
rradius 113.499 0 0
rwrist -41.2991 0 0
rhand 6.67618 -30.1373 0
rfingers 7.12502 0 0
rthumb 31.9617 -57.2994 0
1532
root -5.85942 15.3637 19.7034 559.97 -16.9552 526.482
lfemur -38.9687 9.45698 -23.7957
ltibia 75.411 0 0
lfoot -12.5327 18.9574 0
ltoes -29.8167 0 0
rfemur -47.9806 -5.55367 16.0504
rtibia 74.8821 0 0
rfoot -17.0103 -8.55321 0
rtoes -19.0871 0 0
lowerback 18.8951 0.465871 -0.040651
upperback -1.14329 1.14016 2.71858
thorax -11.7895 0.641293 2.66851
lowerneck -3.98848 4.86603 1.07168
upperneck 3.87246 7.05197 -7.44148
head 2.49262 3.40155 -2.08927
lclavicle -1.31052e-14 3.60722e-15 0
lhumerus 45.0843 -52.9336 51.1571
lradius 101.25 0 0
lwrist 16.0448 0 0
lhand -23.0909 38.717 0
lfingers 7.12502 0 0
lthumb 3.35533 -168.403 0
rclavicle -1.31052e-14 3.60722e-15 0
rhumerus -38.4375 44.14 -82.2335
rradius 113.903 0 0
rwrist -41.4375 0 0
rhand 6.84785 -29.9066 0
rfingers 7.12502 0 0
rthumb 32.1249 -57.0338 0
1533
root -5.92296 15.3696 19.7275 560.829 -19.2113 525.404
lfemur -38.3272 9.51591 -23.6768
ltibia 74.4532 0 0
lfoot -12.715 18.8434 0
ltoes -30.2233 0 0
rfemur -48.2085 -5.93278 16.0371
rtibia 75.5311 0 0
rfoot -16.8438 -8.68019 0
rtoes -18.6695 0 0
lowerback 18.8284 0.429684 -0.332994
upperback -1.13309 1.02091 2.71049
thorax -11.7318 0.599437 2.85985
lowerneck -4.02379 4.57849 0.852769
upperneck 3.85637 6.65997 -7.19367
head 2.47439 3.20676 -1.99447
lclavicle -1.2664e-14 3.29692e-15 0
lhumerus 43.3703 -51.8073 52.2811
lradius 99.6 0 0
lwrist 15.7227 0 0
lhand -23.0933 38.5646 0
lfingers 7.12502 0 0
lthumb 3.35306 -159.775 0
rclavicle -1.2664e-14 3.29692e-15 0
rhumerus -38.7236 43.7173 -82.7131
rradius 114.307 0 0
rwrist -41.5758 0 0
rhand 7.01952 -29.6759 0
rfingers 7.12502 0 0
rthumb 32.2881 -56.7682 0
1534
root -5.9865 15.3754 19.7516 561.688 -21.4673 524.325
lfemur -37.6856 9.57484 -23.5579
ltibia 73.4954 0 0
lfoot -12.8972 18.7294 0
ltoes -30.6299 0 0
rfemur -48.4365 -6.31189 16.0237
rtibia 76.18 0 0
rfoot -16.6772 -8.80717 0
rtoes -18.2518 0 0
lowerback 18.7618 0.393498 -0.625337
upperback -1.12289 0.901666 2.70241
thorax -11.6741 0.55758 3.05119
lowerneck -4.05911 4.29095 0.633858
upperneck 3.84028 6.26797 -6.94586
head 2.45616 3.01196 -1.89967
lclavicle -1.22228e-14 2.98662e-15 0
lhumerus 41.6563 -50.6811 53.4052
lradius 97.9504 0 0
lwrist 15.4007 0 0
lhand -23.0956 38.4122 0
lfingers 7.12502 0 0
lthumb 3.35079 -151.146 0
rclavicle -1.22228e-14 2.98662e-15 0
rhumerus -39.0098 43.2946 -83.1928
rradius 114.71 0 0
rwrist -41.7141 0 0
rhand 7.19119 -29.4453 0
rfingers 7.12502 0 0
rthumb 32.4513 -56.5026 0
1535
root -6.05004 15.3812 19.7757 562.548 -23.7233 523.247
lfemur -37.044 9.63376 -23.4389
ltibia 72.5376 0 0
lfoot -13.0795 18.6154 0
ltoes -31.0365 0 0
rfemur -48.6644 -6.69101 16.0104
rtibia 76.829 0 0
rfoot -16.5107 -8.93414 0
rtoes -17.8342 0 0
lowerback 18.6951 0.357312 -0.91768
upperback -1.1127 0.78242 2.69433
thorax -11.6163 0.515724 3.24253
lowerneck -4.09442 4.00342 0.414948
upperneck 3.8242 5.87597 -6.69805
head 2.43794 2.81717 -1.80487
lclavicle -1.17816e-14 2.67632e-15 0
lhumerus 39.9423 -49.5548 54.5293
lradius 96.3008 0 0
lwrist 15.0786 0 0
lhand -23.098 38.2598 0
lfingers 7.12502 0 0
lthumb 3.34852 -142.518 0
rclavicle -1.17816e-14 2.67632e-15 0
rhumerus -39.2959 42.8719 -83.6724
rradius 115.114 0 0
rwrist -41.8525 0 0
rhand 7.36286 -29.2146 0
rfingers 7.12502 0 0
rthumb 32.6145 -56.237 0
1536
root -6.11357 15.387 19.7998 563.407 -25.9793 522.169
lfemur -36.4024 9.69269 -23.32
ltibia 71.5798 0 0
lfoot -13.2618 18.5015 0
ltoes -31.443 0 0
rfemur -48.8924 -7.07012 15.9971
rtibia 77.4779 0 0
rfoot -16.3441 -9.06112 0
rtoes -17.4165 0 0
lowerback 18.6285 0.321126 -1.21002
upperback -1.1025 0.663175 2.68625
thorax -11.5586 0.473868 3.43387
lowerneck -4.12974 3.71588 0.196037
upperneck 3.80811 5.48396 -6.45025
head 2.41971 2.62237 -1.71006
lclavicle -1.13404e-14 2.36603e-15 0
lhumerus 38.2283 -48.4285 55.6534
lradius 94.6512 0 0
lwrist 14.7565 0 0
lhand -23.1003 38.1073 0
lfingers 7.12502 0 0
lthumb 3.34625 -133.89 0
rclavicle -1.13404e-14 2.36603e-15 0
rhumerus -39.5821 42.4491 -84.1521
rradius 115.518 0 0
rwrist -41.9908 0 0
rhand 7.53452 -28.9839 0
rfingers 7.12502 0 0
rthumb 32.7777 -55.9714 0
1537
root -6.17711 15.3928 19.8239 564.266 -28.2353 521.091
lfemur -35.7608 9.75162 -23.2011
ltibia 70.622 0 0
lfoot -13.4441 18.3875 0
ltoes -31.8496 0 0
rfemur -49.1203 -7.44923 15.9837
rtibia 78.1268 0 0
rfoot -16.1776 -9.1881 0
rtoes -16.9989 0 0
lowerback 18.5618 0.284939 -1.50237
upperback -1.09231 0.543929 2.67816
thorax -11.5009 0.432012 3.6252
lowerneck -4.16505 3.42834 -0.0228739
upperneck 3.79202 5.09196 -6.20244
head 2.40148 2.42758 -1.61526
lclavicle -1.08992e-14 2.05573e-15 0
lhumerus 36.5143 -47.3022 56.7775
lradius 93.0016 0 0
lwrist 14.4344 0 0
lhand -23.1027 37.9549 0
lfingers 7.12502 0 0
lthumb 3.34398 -125.262 0
rclavicle -1.08992e-14 2.05573e-15 0
rhumerus -39.8682 42.0264 -84.6317
rradius 115.921 0 0
rwrist -42.1291 0 0
rhand 7.70619 -28.7532 0
rfingers 7.12502 0 0
rthumb 32.9409 -55.7058 0
